<?xml version="1.0" encoding="UTF-8"?><svg id="Capa_2" xmlns="http://www.w3.org/2000/svg" viewBox="0 0 180.45 170.22"><defs><style>.cls-1{fill:#ce0f4b;}</style></defs><g id="Capa_1-2"><path class="cls-1" d="M20.37,147.99c-3.12,0-6.11,0-9.1,0-1.5,0-3.01,.04-4.51-.07-5.54-.38-8.48-5.96-5.7-10.84,2.35-4.13,4.88-8.16,7.15-12.33,10.29-18.82,17.65-38.72,21.5-59.85,2.19-12.04,3.09-24.19,2.78-36.43-.05-1.92-.07-3.91,.35-5.77,1-4.44,5.01-7.49,9.57-7.51,5.94-.03,11.88,0,17.93,0,.23-2.4,.35-4.7,.69-6.97,.63-4.09,3.4-7.36,6.64-8.06,4.47-.96,9.17,2.44,10.13,7.58,.44,2.36,.37,4.82,.54,7.34h9.94c.3-2.49,.41-4.99,.93-7.41,.79-3.7,2.72-6.66,6.69-7.51,4.63-.99,9.45,2.96,10.09,8.31,.26,2.14,.04,4.34,.04,6.61h10.37c.19-2.04,.3-4.14,.58-6.21,.4-2.94,1.52-5.55,3.98-7.39,4.39-3.27,10.65-.94,12.46,4.93,.83,2.68,.77,5.64,1.13,8.64h9.86c.24-2.32,.33-4.69,.77-7,.73-3.78,2.58-6.86,6.59-7.86,4.47-1.11,9.29,2.53,10.18,7.72,.4,2.31,.31,4.7,.46,7.27,3.36,0,6.98,0,10.6,0,2.57,0,3.03,.44,3.29,2.95,.97,9.39,2.35,18.76,2.84,28.18,.77,14.69,1.31,29.4,1.26,44.11-.05,14.08-.88,28.15-1.57,42.22-.32,6.62-1,13.23-1.74,19.81-.8,7.18-5.92,11.91-13.15,12.23-13.38,.59-26.77,1.05-40.15,1.6-13.2,.55-26.39,1.18-39.58,1.73-10.69,.45-21.39,.83-32.09,1.26-7.07,.28-14.14,.53-21.2,.91-5.77,.32-9.9-3.28-10.13-9.07-.17-4.3-.31-8.61-.46-13.14Zm14.39-90.16c-.2,.92-.33,1.47-.45,2.01-1.71,7.99-3.07,16.08-5.21,23.95-5.27,19.37-13.75,37.36-24.28,54.4-.87,1.41-1.46,2.78-.55,4.37,.89,1.55,2.36,1.61,3.92,1.61,40.83-.01,81.66-.03,122.48,.02,4.38,0,7.64-1.66,9.78-5.41,4.21-7.38,8.65-14.65,12.46-22.23,9.03-17.97,15.12-36.93,18.16-57.16-45.46-.52-90.83-1.04-136.31-1.56ZM60.18,18.94c-5.65,0-11.1,0-16.54,0-5.05,0-7.47,2.65-7.46,7.72,0,6.51-.18,13.01-.37,19.52-.07,2.6-.37,5.19-.57,7.88,.65,.04,1.14,.09,1.63,.1,44.33,.49,88.65,.96,132.98,1.49,1.53,.02,1.92-.5,2.01-1.89,.25-3.87,.83-7.72,.91-11.59,.15-7.68,.04-15.36,.04-23.08h-24.68c0,1.44,.08,2.75-.02,4.05-.1,1.19,.29,1.69,1.46,2.12,5.83,2.11,8.27,8.15,5.67,13.76-1.91,4.13-6.51,6.8-10.64,6.19-4.41-.66-8.23-4.56-8.84-9.03-.65-4.75,1.32-9.13,5.62-10.51,3-.96,3.23-2.65,3.03-5.06-.04-.48,0-.97,0-1.5h-24.13c-.08,1.32-.07,2.51-.25,3.68-.22,1.4,.22,2.05,1.63,2.55,5.12,1.82,7.61,6.86,6.16,12.08-1.33,4.79-6.1,8.23-10.84,7.83-4.6-.39-8.75-4.54-9.36-9.38-.64-5.02,2.21-9.31,7.21-10.89,.46-.14,.91-.33,1.41-.51v-5.37h-24.12c0,1.12,.13,2.14-.03,3.11-.3,1.82,.33,2.65,2.12,3.36,4.93,1.96,7.16,7.44,5.38,12.47-1.84,5.17-7.21,8.21-12.2,6.89-4.44-1.17-7.78-5.51-7.93-10.28-.13-4.42,2.7-8.1,7.4-9.71,.5-.17,1.2-.65,1.25-1.06,.22-1.58,.22-3.19,.29-4.77h-24.18c-.07,.32-.14,.49-.15,.67-.04,1,0,2.01-.12,3-.17,1.36,.22,2.05,1.65,2.56,4.93,1.75,7.37,6.42,6.25,11.54-1.07,4.89-5.75,8.58-10.61,8.37-4.62-.2-8.99-4.3-9.64-9.06-.73-5.33,2.02-9.62,7.18-11.23,.46-.14,.92-.32,1.39-.49v-5.51Zm-13.26,139.66c8.5-.46,16.99-.91,25.49-1.39,3.12-.18,6.25-.34,9.35-.7,.64-.07,1.46-.89,1.69-1.54,.15-.42-.5-1.28-.99-1.74-.28-.26-.96-.17-1.45-.14-11.49,.63-22.99,1.27-34.48,1.91-1.21,.07-2.13,.65-2.04,1.94,.1,1.41,1.17,1.78,2.43,1.65Zm127.92-69.53c0-1.56,.05-3.13-.02-4.69-.05-1.12-.61-1.93-1.85-1.91-1.26,.01-1.7,.88-1.79,1.98-.03,.31,.02,.62,.03,.94,.25,7.03-.3,14-1.92,20.84-.92,3.87-2.17,7.67-3.3,11.49-.33,1.12-.4,2.2,.86,2.68,1.31,.5,2.14-.22,2.56-1.46,.06-.18,.12-.36,.18-.53,3.44-9.48,5.17-19.26,5.24-29.34ZM87.93,28.77c-3.26,.77-4.89,3.21-4.48,6.55,.42,3.44,3.39,6.28,6.44,6.17,3.17-.12,6.14-3,6.44-6.25,.29-3.24-1.43-5.74-4.59-6.39,0,1.65,.06,3.26-.02,4.87-.06,1.27-.68,2.2-2.1,2.1-1.34-.09-1.71-1.05-1.7-2.25,.01-1.56,0-3.11,0-4.8Zm-28.06-.05c-3.47,1.09-5.08,3.67-4.48,6.91,.61,3.31,3.67,6.03,6.58,5.84,3.28-.21,6.01-3.02,6.35-6.54,.28-2.86-1.55-5.41-4.42-6.02-.09,1.57-.22,3.12-.26,4.67-.03,1.31-.51,2.26-1.92,2.23-1.41-.03-1.87-1-1.85-2.3,.03-1.55,0-3.11,0-4.79Zm60.16,.1c-.11,1.62-.23,3.22-.31,4.82-.07,1.28-.53,2.26-1.98,2.18-1.39-.08-1.85-1.07-1.84-2.35,.01-1.55,0-3.09,0-4.63-2.71,.4-4.69,2.87-4.56,5.79,.15,3.44,2.91,6.55,6.06,6.84,3.09,.29,6.18-2.33,6.93-5.9,.63-2.97-1.08-5.71-4.3-6.75Zm24-.08c-3.43,.96-5.01,3.46-4.51,6.85,.47,3.16,3.44,5.93,6.34,5.9,3.19-.03,6.16-2.85,6.5-6.15,.34-3.3-1.24-5.7-4.58-6.5,0,1.62,0,3.16,0,4.71,0,1.29-.5,2.26-1.9,2.27-1.43,.02-1.89-.94-1.86-2.26,.04-1.56,0-3.11,0-4.81ZM74.05,15.11c.65-3,.77-5.9-.74-8.6-.88-1.57-2.19-2.76-4.18-2.67-1.95,.09-3,1.41-3.69,3.01-1.13,2.62-1.19,5.4-1.02,8.26h9.64Zm84.21,.03c.12-1.2,.45-2.29,.28-3.29-.33-1.98-.53-4.17-1.53-5.83-1.97-3.27-5.66-2.89-7.33,.56-1.31,2.7-1.28,5.6-1.11,8.56h9.7Zm-28.04,0c.43-3.44,.86-6.74-1.52-9.57-2.2-2.62-5.23-2.32-6.87,.67-1.52,2.77-1.39,5.82-1.47,8.9h9.86Zm-27.96-.02c.11-3.16,.72-6.18-1.09-8.91-.98-1.48-2.27-2.52-4.18-2.36-1.77,.15-2.98,1.28-3.39,2.83-.71,2.71-1.08,5.51-1.62,8.44h10.27Zm61.75,112.47c-1.47,.3-3.27,2.2-3.01,3.4,.15,.7,.96,1.54,1.66,1.77,.98,.33,2.99-1.99,2.73-3.19-.15-.73-.9-1.33-1.38-1.99Zm-69.17,27.81c1.35,.07,2.56-.13,2.59-1.73,.03-1.76-1.33-1.84-2.63-1.85-1.28-.02-2.56,.22-2.56,1.77,0,1.63,1.27,1.94,2.6,1.82Z"/><path class="cls-1" d="M21.69,54.61c0-1.38,.03-2.75,0-4.13-.06-2.06,.53-3.11,1.88-3.05,1.81,.09,1.96,1.45,1.99,2.83,.22,10.73-1.39,21.18-4.99,31.3-.59,1.65-1.24,3.27-1.91,4.88-.48,1.14-1.25,1.98-2.61,1.39-1.28-.56-1.43-1.58-.91-2.81,2.89-6.76,4.86-13.77,5.8-21.06,.4-3.1,.59-6.22,.88-9.34h-.14Z"/><path class="cls-1" d="M25.77,40.89c-1.29,.87-1.95,1.61-2.73,1.77-1.15,.25-2.48-1.32-2.13-2.65,.2-.74,1.51-1.89,1.84-1.75,.97,.42,1.69,1.4,3.02,2.63Z"/><path class="cls-1" d="M96.11,68.04c1.11,.14,2.25,.19,3.33,.44,8.51,2.02,11.24,10.91,5.36,17.4-4.09,4.52-11.36,6.23-16.66,3.91-4.94-2.16-7.09-6.84-5.5-12.02,1.83-5.96,6.99-9.66,13.47-9.74Zm-7.44,11.63c-.07,1.06,.16,2.23,1.6,2.35,1.39,.11,1.88-.83,1.96-2.17,.14-2.21,1.07-2.98,3.47-3.8,.7-.24,1.55-1.17,1.61-1.85,.1-1.15-.86-1.62-2.05-1.6-3.47,.07-6.52,3.23-6.6,7.07Z"/><path class="cls-1" d="M47.77,123.05c-6.68,0-11.71-4.65-11.12-10.46,.46-4.59,2.78-8.16,6.79-10.43,4.1-2.32,8.49-2.5,12.83-.72,6.77,2.78,8.24,11.03,3.06,16.69-2.85,3.12-7.08,4.92-11.56,4.92Zm1.74-17.48c-3.28,.17-6.46,2.16-7.38,5.04-.21,.66,.19,1.86,.73,2.29,.38,.31,1.9-.02,2.16-.48,1.54-2.74,3.62-3.55,6.61-2.61,.55,.17,1.93-.55,2.01-1.03,.12-.69-.38-1.83-.98-2.22-.88-.59-2.09-.69-3.16-.99Z"/><path class="cls-1" d="M130.56,91.48c-8.33-.01-13.16-4.74-12.39-11.05,.54-4.42,2.97-7.8,6.88-9.95,3.69-2.02,7.64-2.29,11.62-1.02,7.77,2.48,9.62,11.75,3.55,17.65-3.06,2.97-6.81,4.31-9.66,4.37Zm1.29-18.28c-3.49,.25-6.64,3.27-6.44,6.58,.04,.7,.89,1.8,1.5,1.89,.6,.09,1.78-.71,1.99-1.35,1.09-3.33,1.61-3.6,4.9-2.56,.66,.21,2-.23,2.27-.76,.28-.53-.13-1.9-.67-2.29-1.01-.73-2.35-1.03-3.55-1.51Z"/><path class="cls-1" d="M72.63,113.92c0-7.62,7.7-14.03,15.51-12.88,.68,.1,1.37,.19,2.03,.35,7.44,1.82,10.43,9.15,6.41,15.67-3.48,5.65-11.97,8.3-18.03,5.61-3.81-1.69-5.91-4.79-5.91-8.76Zm13.49-4.01c1.18,.19,2.41,.02,2.56-1.54,.15-1.55-1.13-1.9-2.34-2.12-3.81-.7-7.71,2.46-8.07,6.52-.12,1.33,.24,2.51,1.7,2.66,1.38,.14,1.86-.92,2.02-2.18,.31-2.49,1.45-3.41,4.13-3.34Z"/><path class="cls-1" d="M122.68,101.65c5.75,.01,10.09,2.96,11.3,7.72,.73,2.88,.16,5.59-1.31,8.11-3.38,5.8-11.93,8.58-18.09,5.92-4.92-2.13-7.1-6.88-5.52-12.03,1.83-5.98,7.08-9.72,13.63-9.71Zm2.56,9.19c.43-.41,1.2-.83,1.44-1.45,.42-1.12-.28-1.84-1.33-2.3-4.35-1.88-9.43,.68-10.79,5.44-.36,1.26-.46,2.48,1.02,2.95,1.5,.48,2.08-.57,2.47-1.84,.86-2.83,2.94-3.97,5.77-3.26,.36,.09,.71,.23,1.43,.46Z"/><path class="cls-1" d="M60.18,67.44c5.91,0,10.27,2.91,11.45,7.75,.65,2.66,.19,5.21-1.08,7.62-3.35,6.31-12.48,9.24-18.89,6.09-4.45-2.19-6.42-6.66-5.06-11.45,1.75-6.14,7-10,13.58-10Zm-8.22,12.89c.01,.92,.26,2.04,1.73,2.14,1.47,.1,1.86-.92,1.99-2.18,.36-3.63,2.56-5.23,6.24-4.48,1.23,.25,2.16,.11,2.49-1.19,.33-1.28-.41-1.95-1.58-2.32-5.17-1.64-10.7,2.29-10.87,8.03Z"/></g></svg>