<?xml version="1.0" encoding="UTF-8"?><svg id="Capa_2" xmlns="http://www.w3.org/2000/svg" viewBox="0 0 167.5 37.43"><defs><style>.cls-1{fill:#fff;}</style></defs><g id="Capa_1-2"><g><g><path class="cls-1" d="M4.48,32.54c-.69,0-1.34,0-2,0-.33,0-.66,0-.99-.01-1.22-.08-1.87-1.31-1.25-2.38,.52-.91,1.07-1.79,1.57-2.71,2.26-4.14,3.88-8.51,4.73-13.16,.48-2.65,.68-5.32,.61-8.01-.01-.42-.01-.86,.08-1.27,.22-.98,1.1-1.65,2.1-1.65,1.31,0,2.61,0,3.94,0,.05-.53,.08-1.03,.15-1.53,.14-.9,.75-1.62,1.46-1.77,.98-.21,2.02,.54,2.23,1.67,.1,.52,.08,1.06,.12,1.61h2.19c.07-.55,.09-1.1,.2-1.63,.17-.81,.6-1.46,1.47-1.65,1.02-.22,2.08,.65,2.22,1.83,.06,.47,0,.95,0,1.45h2.28c.04-.45,.07-.91,.13-1.37,.09-.65,.33-1.22,.88-1.62,.96-.72,2.34-.21,2.74,1.08,.18,.59,.17,1.24,.25,1.9h2.17c.05-.51,.07-1.03,.17-1.54,.16-.83,.57-1.51,1.45-1.73,.98-.24,2.04,.56,2.24,1.7,.09,.51,.07,1.03,.1,1.6,.74,0,1.54,0,2.33,0,.56,0,.67,.1,.72,.65,.21,2.07,.52,4.13,.63,6.2,.17,3.23,.29,6.47,.28,9.7-.01,3.1-.19,6.19-.35,9.28-.07,1.46-.22,2.91-.38,4.36-.18,1.58-1.3,2.62-2.89,2.69-2.94,.13-5.89,.23-8.83,.35-2.9,.12-5.8,.26-8.7,.38-2.35,.1-4.7,.18-7.06,.28-1.55,.06-3.11,.12-4.66,.2-1.27,.07-2.18-.72-2.23-1.99-.04-.95-.07-1.89-.1-2.89ZM7.64,12.72c-.04,.2-.07,.32-.1,.44-.38,1.76-.67,3.54-1.15,5.27-1.16,4.26-3.02,8.21-5.34,11.96-.19,.31-.32,.61-.12,.96,.2,.34,.52,.35,.86,.35,8.98,0,17.96,0,26.93,0,.96,0,1.68-.36,2.15-1.19,.93-1.62,1.9-3.22,2.74-4.89,1.99-3.95,3.33-8.12,3.99-12.57l-29.98-.34ZM13.23,4.16c-1.24,0-2.44,0-3.64,0-1.11,0-1.64,.58-1.64,1.7,0,1.43-.04,2.86-.08,4.29-.02,.57-.08,1.14-.12,1.73,.14,0,.25,.02,.36,.02,9.75,.11,19.49,.21,29.24,.33,.34,0,.42-.11,.44-.42,.06-.85,.18-1.7,.2-2.55,.03-1.69,0-3.38,0-5.08h-5.43c0,.32,.02,.6,0,.89-.02,.26,.06,.37,.32,.47,1.28,.46,1.82,1.79,1.25,3.03-.42,.91-1.43,1.5-2.34,1.36-.97-.14-1.81-1-1.94-1.99-.14-1.04,.29-2.01,1.24-2.31,.66-.21,.71-.58,.67-1.11,0-.11,0-.21,0-.33h-5.31c-.02,.29-.01,.55-.05,.81-.05,.31,.05,.45,.36,.56,1.13,.4,1.67,1.51,1.35,2.66-.29,1.05-1.34,1.81-2.38,1.72-1.01-.09-1.92-1-2.06-2.06-.14-1.1,.49-2.05,1.58-2.39,.1-.03,.2-.07,.31-.11v-1.18h-5.3c0,.25,.03,.47,0,.68-.07,.4,.07,.58,.47,.74,1.08,.43,1.58,1.64,1.18,2.74-.4,1.14-1.59,1.81-2.68,1.52-.98-.26-1.71-1.21-1.74-2.26-.03-.97,.59-1.78,1.63-2.14,.11-.04,.26-.14,.28-.23,.05-.35,.05-.7,.06-1.05h-5.32c-.02,.07-.03,.11-.03,.15,0,.22,0,.44-.03,.66-.04,.3,.05,.45,.36,.56,1.08,.38,1.62,1.41,1.37,2.54-.24,1.08-1.26,1.89-2.33,1.84-1.02-.04-1.98-.95-2.12-1.99-.16-1.17,.44-2.12,1.58-2.47,.1-.03,.2-.07,.31-.11v-1.21Zm-2.92,30.71c1.87-.1,3.74-.2,5.6-.31,.69-.04,1.37-.07,2.06-.15,.14-.02,.32-.2,.37-.34,.03-.09-.11-.28-.22-.38-.06-.06-.21-.04-.32-.03-2.53,.14-5.05,.28-7.58,.42-.27,.01-.47,.14-.45,.43,.02,.31,.26,.39,.54,.36Zm28.13-15.29c0-.34,.01-.69,0-1.03-.01-.25-.13-.42-.41-.42-.28,0-.37,.19-.39,.44,0,.07,0,.14,0,.21,.05,1.55-.07,3.08-.42,4.58-.2,.85-.48,1.69-.73,2.53-.07,.25-.09,.48,.19,.59,.29,.11,.47-.05,.56-.32,.01-.04,.03-.08,.04-.12,.76-2.08,1.14-4.24,1.15-6.45ZM19.34,6.33c-.72,.17-1.08,.71-.99,1.44,.09,.76,.74,1.38,1.42,1.36,.7-.03,1.35-.66,1.42-1.37,.06-.71-.32-1.26-1.01-1.4,0,.36,.01,.72,0,1.07-.01,.28-.15,.48-.46,.46-.29-.02-.37-.23-.37-.49,0-.34,0-.68,0-1.06Zm-6.17-.01c-.76,.24-1.12,.81-.99,1.52,.13,.73,.81,1.33,1.45,1.29,.72-.05,1.32-.66,1.4-1.44,.06-.63-.34-1.19-.97-1.32-.02,.34-.05,.69-.06,1.03,0,.29-.11,.5-.42,.49-.31,0-.41-.22-.41-.51,0-.34,0-.68,0-1.05Zm13.23,.02c-.02,.36-.05,.71-.07,1.06-.02,.28-.12,.5-.43,.48-.31-.02-.41-.23-.4-.52,0-.34,0-.68,0-1.02-.6,.09-1.03,.63-1,1.27,.03,.76,.64,1.44,1.33,1.51,.68,.06,1.36-.51,1.52-1.3,.14-.65-.24-1.26-.95-1.48Zm5.28-.02c-.75,.21-1.1,.76-.99,1.51,.1,.69,.76,1.3,1.39,1.3,.7,0,1.35-.63,1.43-1.35,.07-.73-.27-1.25-1.01-1.43,0,.36,0,.7,0,1.03,0,.28-.11,.5-.42,.5-.31,0-.41-.21-.41-.5,0-.34,0-.68,0-1.06Zm-15.39-3c.14-.66,.17-1.3-.16-1.89-.19-.35-.48-.61-.92-.59-.43,.02-.66,.31-.81,.66-.25,.58-.26,1.19-.22,1.82h2.12Zm18.52,0c.03-.26,.1-.5,.06-.72-.07-.44-.12-.92-.34-1.28-.43-.72-1.24-.64-1.61,.12-.29,.59-.28,1.23-.24,1.88h2.13Zm-6.17,0c.09-.76,.19-1.48-.33-2.11-.48-.58-1.15-.51-1.51,.15-.33,.61-.31,1.28-.32,1.96h2.17Zm-6.15,0c.02-.7,.16-1.36-.24-1.96-.22-.33-.5-.55-.92-.52-.39,.03-.66,.28-.74,.62-.16,.6-.24,1.21-.36,1.86h2.26Zm13.58,24.73c-.32,.07-.72,.48-.66,.75,.03,.15,.21,.34,.36,.39,.21,.07,.66-.44,.6-.7-.03-.16-.2-.29-.3-.44Zm-15.21,6.12c.3,.02,.56-.03,.57-.38,0-.39-.29-.4-.58-.41-.28,0-.56,.05-.56,.39,0,.36,.28,.43,.57,.4Z"/><path class="cls-1" d="M4.77,12.01c0-.3,0-.61,0-.91-.01-.45,.12-.68,.41-.67,.4,.02,.43,.32,.44,.62,.05,2.36-.31,4.66-1.1,6.88-.13,.36-.27,.72-.42,1.07-.1,.25-.27,.43-.57,.3-.28-.12-.32-.35-.2-.62,.63-1.49,1.07-3.03,1.28-4.63,.09-.68,.13-1.37,.19-2.05h-.03Z"/><path class="cls-1" d="M5.67,8.99c-.28,.19-.43,.35-.6,.39-.25,.05-.55-.29-.47-.58,.04-.16,.33-.42,.4-.39,.21,.09,.37,.31,.66,.58Z"/><path class="cls-1" d="M21.13,14.96c.24,.03,.49,.04,.73,.1,1.87,.44,2.47,2.4,1.18,3.83-.9,.99-2.5,1.37-3.66,.86-1.09-.47-1.56-1.51-1.21-2.64,.4-1.31,1.54-2.12,2.96-2.14Zm-1.64,2.56c-.02,.23,.04,.49,.35,.52,.31,.03,.41-.18,.43-.48,.03-.49,.23-.66,.76-.84,.15-.05,.34-.26,.36-.41,.02-.25-.19-.36-.45-.35-.76,.02-1.43,.71-1.45,1.55Z"/><path class="cls-1" d="M10.5,27.06c-1.47,0-2.58-1.02-2.45-2.3,.1-1.01,.61-1.8,1.49-2.29,.9-.51,1.87-.55,2.82-.16,1.49,.61,1.81,2.42,.67,3.67-.63,.69-1.56,1.08-2.54,1.08Zm.38-3.84c-.72,.04-1.42,.48-1.62,1.11-.05,.14,.04,.41,.16,.5,.08,.07,.42,0,.47-.11,.34-.6,.8-.78,1.45-.57,.12,.04,.42-.12,.44-.23,.03-.15-.08-.4-.22-.49-.19-.13-.46-.15-.69-.22Z"/><path class="cls-1" d="M28.71,20.12c-1.83,0-2.89-1.04-2.72-2.43,.12-.97,.65-1.72,1.51-2.19,.81-.44,1.68-.5,2.55-.22,1.71,.55,2.12,2.58,.78,3.88-.67,.65-1.5,.95-2.12,.96Zm.28-4.02c-.77,.05-1.46,.72-1.42,1.45,0,.15,.2,.39,.33,.42,.13,.02,.39-.16,.44-.3,.24-.73,.35-.79,1.08-.56,.14,.05,.44-.05,.5-.17,.06-.12-.03-.42-.15-.5-.22-.16-.52-.23-.78-.33Z"/><path class="cls-1" d="M15.97,25.05c0-1.68,1.69-3.09,3.41-2.83,.15,.02,.3,.04,.45,.08,1.64,.4,2.29,2.01,1.41,3.45-.77,1.24-2.63,1.82-3.97,1.23-.84-.37-1.3-1.05-1.3-1.93Zm2.97-.88c.26,.04,.53,0,.56-.34,.03-.34-.25-.42-.51-.47-.84-.15-1.69,.54-1.77,1.43-.03,.29,.05,.55,.37,.58,.3,.03,.41-.2,.44-.48,.07-.55,.32-.75,.91-.74Z"/><path class="cls-1" d="M26.98,22.35c1.26,0,2.22,.65,2.49,1.7,.16,.63,.03,1.23-.29,1.78-.74,1.28-2.62,1.89-3.98,1.3-1.08-.47-1.56-1.51-1.21-2.65,.4-1.32,1.56-2.14,3-2.13Zm.56,2.02c.09-.09,.26-.18,.32-.32,.09-.25-.06-.41-.29-.51-.96-.41-2.07,.15-2.37,1.2-.08,.28-.1,.55,.22,.65,.33,.11,.46-.12,.54-.41,.19-.62,.65-.87,1.27-.72,.08,.02,.16,.05,.31,.1Z"/><path class="cls-1" d="M13.23,14.83c1.3,0,2.26,.64,2.52,1.7,.14,.58,.04,1.15-.24,1.67-.74,1.39-2.74,2.03-4.15,1.34-.98-.48-1.41-1.47-1.11-2.52,.39-1.35,1.54-2.2,2.99-2.2Zm-1.81,2.84c0,.2,.06,.45,.38,.47,.32,.02,.41-.2,.44-.48,.08-.8,.56-1.15,1.37-.99,.27,.06,.47,.03,.55-.26,.07-.28-.09-.43-.35-.51-1.14-.36-2.35,.5-2.39,1.77Z"/></g><g><polygon class="cls-1" points="57.86 18.91 52.21 9.63 50.84 9.63 50.84 24.07 52.79 24.07 52.79 13.91 57.17 21.12 58.56 21.12 62.93 13.91 62.93 24.07 64.89 24.07 64.89 9.63 63.51 9.63 57.86 18.91"/><polygon class="cls-1" points="71.87 21.2 69.01 14.19 66.92 14.19 70.81 23.21 68.38 28.22 70.46 28.22 72.34 24.16 76.96 14.19 74.87 14.19 71.87 21.2"/><path class="cls-1" d="M92.19,21.96c-.67,.3-1.45,.45-2.35,.45-.76,0-1.46-.14-2.1-.41-.64-.27-1.19-.66-1.66-1.16-.47-.5-.84-1.09-1.09-1.77-.26-.68-.38-1.42-.38-2.23s.13-1.55,.38-2.23c.26-.68,.62-1.27,1.09-1.77,.47-.5,1.03-.88,1.66-1.16,.64-.27,1.33-.41,2.08-.41,.85,0,1.6,.15,2.27,.44s1.23,.69,1.69,1.21l1.35-1.35c-.67-.67-1.43-1.19-2.29-1.58-.86-.39-1.87-.58-3.02-.58-1.03,0-1.98,.19-2.87,.57-.89,.38-1.66,.91-2.31,1.58-.65,.67-1.16,1.46-1.52,2.36-.36,.9-.54,1.87-.54,2.91s.18,1.99,.54,2.89c.36,.9,.87,1.69,1.53,2.37,.66,.68,1.43,1.21,2.32,1.59,.89,.38,1.85,.57,2.89,.57,1.12,0,2.13-.19,3.03-.58,.89-.39,1.68-.92,2.34-1.6l-1.35-1.35c-.46,.51-1.02,.92-1.69,1.22Z"/><path class="cls-1" d="M104.45,15.55c-.34-.45-.76-.82-1.28-1.1-.59-.31-1.26-.47-2.01-.47-.92,0-1.74,.23-2.47,.69-.73,.46-1.3,1.08-1.73,1.85-.42,.78-.63,1.65-.63,2.62s.21,1.85,.63,2.62c.42,.78,1,1.39,1.73,1.84,.73,.45,1.55,.68,2.47,.68,.75,0,1.42-.16,2.02-.47,.52-.27,.94-.64,1.27-1.09v1.35h1.89V14.19h-1.89v1.36Zm-.73,6.02c-.57,.63-1.32,.95-2.25,.95-.62,0-1.18-.15-1.66-.44-.49-.29-.86-.69-1.13-1.2-.27-.51-.41-1.09-.41-1.76s.14-1.23,.41-1.74c.27-.51,.64-.91,1.12-1.2,.48-.29,1.03-.44,1.65-.44s1.17,.14,1.63,.43c.46,.28,.83,.68,1.09,1.2,.26,.51,.4,1.1,.4,1.77,0,.99-.28,1.79-.85,2.42Z"/><rect class="cls-1" x="109.07" y="9.22" width="1.87" height="14.86"/><path class="cls-1" d="M120.55,14.61c-.71-.42-1.51-.62-2.41-.62-.96,0-1.82,.23-2.59,.68-.77,.45-1.38,1.06-1.83,1.84-.45,.78-.68,1.65-.68,2.62s.23,1.87,.69,2.64c.46,.78,1.08,1.39,1.86,1.84,.78,.45,1.68,.68,2.67,.68,.78,0,1.51-.15,2.19-.44,.68-.29,1.26-.71,1.75-1.27l-1.21-1.23c-.33,.39-.73,.68-1.2,.87-.47,.19-.97,.29-1.53,.29-.67,0-1.26-.14-1.77-.43-.51-.28-.91-.69-1.19-1.21-.17-.32-.28-.67-.35-1.05h7.73c.04-.19,.07-.37,.08-.53,.01-.16,.02-.31,.02-.45,0-.94-.2-1.78-.59-2.52-.4-.74-.95-1.31-1.65-1.73Zm-4.14,1.52c.49-.28,1.05-.42,1.69-.42s1.13,.13,1.56,.38c.43,.26,.76,.62,1,1.08,.16,.32,.26,.68,.31,1.09h-6c.06-.36,.17-.68,.32-.98,.26-.5,.64-.89,1.12-1.17Z"/><path class="cls-1" d="M131.84,14.54c-.58-.37-1.24-.56-1.99-.56s-1.42,.17-2.02,.51c-.45,.26-.82,.58-1.12,.98v-1.28h-1.87v9.88h1.87v-5.76c0-.5,.11-.94,.33-1.33,.22-.39,.53-.69,.92-.92,.39-.22,.83-.33,1.33-.33,.75,0,1.36,.24,1.82,.73,.46,.49,.7,1.1,.7,1.85v5.76h1.89v-6.14c0-.68-.17-1.32-.5-1.92-.33-.6-.79-1.09-1.36-1.47Z"/><path class="cls-1" d="M143.73,15.56c-.35-.46-.78-.84-1.31-1.11-.6-.31-1.27-.47-2.02-.47-.9,0-1.71,.23-2.43,.69-.72,.46-1.29,1.08-1.72,1.85-.42,.78-.63,1.65-.63,2.62s.21,1.85,.63,2.62c.42,.78,1,1.39,1.72,1.84,.72,.45,1.53,.68,2.43,.68,.76,0,1.44-.16,2.04-.47,.52-.27,.95-.65,1.29-1.11v1.37h1.89V9.22h-1.89v6.35Zm-1.37,6.51c-.47,.29-1.02,.44-1.64,.44s-1.16-.14-1.63-.43c-.48-.28-.85-.68-1.12-1.2-.27-.51-.41-1.1-.41-1.77s.14-1.25,.41-1.76c.27-.51,.64-.9,1.11-1.19,.47-.28,1.02-.43,1.64-.43s1.17,.15,1.64,.44c.47,.29,.84,.69,1.1,1.2,.26,.51,.4,1.09,.4,1.76s-.13,1.23-.4,1.74c-.26,.51-.63,.91-1.1,1.2Z"/><path class="cls-1" d="M155.85,15.55c-.34-.45-.76-.82-1.28-1.1-.59-.31-1.26-.47-2.01-.47-.92,0-1.74,.23-2.47,.69s-1.3,1.08-1.73,1.85c-.42,.78-.63,1.65-.63,2.62s.21,1.85,.63,2.62c.42,.78,1,1.39,1.73,1.84s1.55,.68,2.47,.68c.75,0,1.42-.16,2.02-.47,.52-.27,.93-.64,1.27-1.09v1.35h1.89V14.19h-1.89v1.36Zm-.73,6.02c-.57,.63-1.32,.95-2.25,.95-.62,0-1.18-.15-1.67-.44-.49-.29-.86-.69-1.13-1.2-.27-.51-.41-1.09-.41-1.76s.14-1.23,.41-1.74c.27-.51,.65-.91,1.12-1.2,.48-.29,1.03-.44,1.65-.44s1.17,.14,1.63,.43c.46,.28,.83,.68,1.09,1.2,.26,.51,.4,1.1,.4,1.77,0,.99-.28,1.79-.85,2.42Z"/><path class="cls-1" d="M166.38,14.24c-.4-.17-.85-.26-1.35-.26-1.1,0-1.94,.37-2.52,1.12-.06,.08-.11,.18-.17,.27v-1.18h-1.87v9.88h1.87v-5.62c0-.92,.22-1.6,.67-2.04s1.01-.67,1.71-.67c.33,0,.62,.05,.87,.15,.25,.1,.48,.26,.69,.48l1.23-1.27c-.35-.4-.72-.69-1.12-.86Z"/></g></g></g></svg>